<?xml version="1.0" encoding="UTF-8" standalone="no"?>
<!DOCTYPE svg PUBLIC "-//W3C//DTD SVG 1.1//EN" "http://www.w3.org/Graphics/SVG/1.1/DTD/svg11.dtd">
<svg width="100%" height="100%" viewBox="0 0 1000 1000" version="1.1" xmlns="http://www.w3.org/2000/svg" xmlns:xlink="http://www.w3.org/1999/xlink" xml:space="preserve" xmlns:serif="http://www.serif.com/" style="fill-rule:evenodd;clip-rule:evenodd;stroke-linejoin:round;stroke-miterlimit:2;">
    <g id="Sfondo" transform="matrix(0.952381,0,0,0.952381,0,0)">
        <g transform="matrix(1.54192,0,0,1.67556,-143.865,-100.333)">
            <ellipse cx="433.786" cy="373.21" rx="340.484" ry="313.329" style="fill:white;"/>
        </g>
        <g transform="matrix(1,0,0,1,525,1050)">
            <path d="M0,-1050C-289.949,-1050 -525,-814.949 -525,-525C-525,-235.051 -289.949,0 0,0C289.95,0 525,-235.051 525,-525C525,-814.949 289.95,-1050 0,-1050M0,-1045C70.202,-1045 138.301,-1031.25 202.406,-1004.14C264.327,-977.947 319.938,-940.453 367.695,-892.695C415.453,-844.938 452.948,-789.326 479.138,-727.406C506.252,-663.301 520,-595.202 520,-525C520,-454.798 506.252,-386.699 479.138,-322.594C452.948,-260.674 415.453,-205.063 367.695,-157.305C319.938,-109.547 264.327,-72.053 202.406,-45.862C138.301,-18.748 70.202,-5 0,-5C-70.201,-5 -138.301,-18.748 -202.406,-45.862C-264.326,-72.053 -319.937,-109.547 -367.695,-157.305C-415.453,-205.063 -452.948,-260.674 -479.138,-322.594C-506.252,-386.699 -520,-454.798 -520,-525C-520,-595.202 -506.252,-663.301 -479.138,-727.406C-452.948,-789.326 -415.453,-844.938 -367.695,-892.695C-319.937,-940.453 -264.326,-977.947 -202.406,-1004.14C-138.301,-1031.25 -70.201,-1045 0,-1045" style="fill-rule:nonzero;"/>
        </g>
    </g>
    <g transform="matrix(0.952381,0,0,0.952381,844.451,193.641)">
        <g id="Mattoni">
            <path d="M-771.065,215.964C-805.449,214.106 -839.79,210.254 -874.215,210.827C-874.461,210.859 -874.713,210.88 -874.96,210.91C-874.663,209.527 -874.357,208.145 -874.049,206.765C-828.652,207.277 -783.216,206.963 -737.85,206.536C-704.438,176.214 -729.451,135.105 -725.654,98.325C-717.805,64.761 -712.25,16.921 -771.689,27.319C-779.785,27.049 -787.885,26.835 -795.985,26.645C-793.451,22.921 -790.869,19.233 -788.242,15.578C-700.145,12.032 -606.094,25.962 -524.645,11.73C-510.498,14.534 -480.916,18.827 -471.494,5.513C-457.289,-19.495 -464.857,-58.098 -463.197,-87.136C-465.679,-140.849 -460.979,-170.551 -459.002,-194.309C-456.494,-194.78 -453.979,-195.23 -451.46,-195.665C-452.437,-171.419 -451.782,-144.112 -452.811,-104.852C-447.477,-69.903 -473.786,-10.677 -422.584,7.341C-390.778,16.878 -357.154,12.349 -325.7,8.708C-268.078,13.868 -221.279,13.364 -162.621,13.999C-131.273,10.152 -100.152,14.085 -70.242,17.634C-41.939,10.714 -31.289,17.648 -20.631,1.562C-16.14,-5.214 -12.727,-33.867 -10.856,-68.896C-8.74,-66.994 -6.635,-65.079 -4.55,-63.142C-5.918,-46.048 -6.98,-28.932 -6.383,-11.776C-14.734,15.526 -2.732,26.925 15.695,30.508C-60.903,21.365 -153.039,27.098 -228.25,33.786C-255.922,38.968 -299.967,25.398 -321.539,33.15C-344.074,41.253 -335.803,116.152 -336.055,123.644C-337.193,157.771 -349.543,200.562 -332.323,206.747C-308.627,209.277 -248.779,204.855 -214.484,205.683C-178.965,206.544 -161.002,201.444 -123.359,202.353C-87.328,203.226 -62.242,203.829 -32.416,204.55C-10.721,205.073 16.482,218.624 52.191,201.732C55.23,200.296 55.1,114.544 55.346,107.052C56.396,75.677 53.949,51.683 44.756,34.853C38.137,33.634 31.334,32.57 24.405,31.623C39.211,32.666 56.378,30.109 70.297,27.204C71.091,27.032 71.892,26.877 72.696,26.729C74.491,29.367 76.263,32.023 78.011,34.695C64.833,38.716 56.357,49.081 63.463,64.218C67.254,95.112 69.373,126.107 66.033,157.114C65.67,172.599 64.533,188.712 69.361,203.771C96.35,204.901 123.365,205.235 150.375,205.311C150.902,207.64 151.413,209.975 151.909,212.316C138.066,213.163 124.379,213.877 110.305,213.536C77.393,212.743 49.385,217.265 14.994,216.431C-17.486,215.644 -52.26,214.806 -84.742,214.021C-119.193,213.189 -136.986,213.218 -168.639,219.148C-191.303,223.392 -180.986,297.825 -178.83,306.165C-172.551,330.448 -180.762,364.11 -181.594,389.112C-182.178,406.511 -193.105,424.739 -169.559,429.771L-124.422,429.239C-113.602,429.495 -102.773,429.763 -91.947,430.019C-59.469,430.81 -26.99,431.595 5.49,432.378C39.123,433.191 67.791,428.349 103.111,429.206C121.283,429.644 136.856,431.179 151.664,432.199C150.982,435.38 150.273,438.55 149.534,441.708C139.979,442.248 130.811,442.301 123.445,441.253C101.221,439.14 79.018,442.042 56.824,441.972C39.553,440.993 8.701,436.122 11.002,458.302C10.504,484.433 13.74,510.525 13.398,536.65C11.063,557.685 4.959,579.487 14.172,600.05C21.668,614.29 4.395,639.423 25.793,645.968C34.615,646.406 43.316,644.967 52.077,644.869C50.327,647.107 48.56,649.33 46.774,651.538C20.768,652.306 -5.277,653.247 -31.457,654.609C-54.576,652.732 -78.418,653.716 -100.352,644.804C-103.121,644.245 -139.029,648.444 -141.867,648.542C-170.045,656.948 -182.08,627.314 -203.154,659.53C-220.855,703.351 -201.617,721.665 -208.799,813.405C-208.676,816.836 -208.706,820.405 -208.826,824.069C-212.443,825.168 -216.076,826.232 -219.727,827.254C-220.511,815.867 -221.191,804.929 -219.385,795.802C-219.418,742.429 -216.48,712.407 -220.121,680.716C-215.322,665.616 -212.193,670.485 -224.932,648.019C-280.508,646.521 -357.523,645.163 -402.509,642.062C-438.969,643.735 -496.402,641.819 -535.774,640.929C-576.937,636.523 -614.604,644.417 -648.006,647.487C-686.31,647.001 -662.83,635.353 -674.889,677.372C-678.468,689.845 -680.952,711.974 -682.375,737.361C-685.833,734.691 -689.256,731.976 -692.644,729.221C-694.697,697.242 -661.815,644.997 -717.311,647.55C-735.658,648.442 -754.102,648.564 -772.585,648.462C-774.221,646.408 -775.842,644.343 -777.447,642.265C-767.609,642.206 -757.772,642.142 -747.939,642.048C-706.502,627.739 -740.112,567.743 -732.021,535.958C-734.962,501.659 -726.961,467.653 -726.317,433.607C-776.048,430.9 -825.771,429.424 -875.538,429.707C-876.12,426.926 -876.687,424.14 -877.224,421.343C-817.771,418.506 -757.788,423.274 -698.885,427.726C-685.662,398.898 -701.662,354.3 -700.441,316.302C-687.188,302.685 -680.155,283.422 -683.058,263.465C-683.419,260.976 -685.49,259.154 -687.908,259.015L-688.961,259.062L-689.514,259.2C-692.06,259.831 -693.751,262.308 -693.365,264.964C-691.87,275.24 -693.539,285.298 -697.643,294.165C-695.715,282.011 -694.187,268.746 -694.79,256.591L-683.728,251.775C-681.801,261.797 -677.408,272.59 -678.75,278.89C-689.648,320.071 -678.989,347.327 -683.854,395.095C-691.043,404.058 -673.753,420.806 -657.283,426.337C-541.54,428.722 -486.507,422.14 -370.936,428.023C-337.535,433.349 -261.518,440.607 -206.201,428.433C-177.17,368.097 -191.594,245.546 -198.926,227.069C-228.369,226.812 -264.738,228.444 -294.133,227.398C-365.961,224.954 -437.14,231.741 -508.749,232.726C-544.516,235.482 -580.242,230.737 -615.839,228.536C-635.684,228.487 -656.702,225.046 -675.581,229.833C-681.216,231.969 -683.673,235.893 -684.37,240.694L-696.002,245.757C-696.285,244.222 -696.618,242.72 -697.004,241.257C-696.93,241.204 -696.856,241.148 -696.784,241.09L-696.294,240.608C-694.498,238.766 -694.33,235.832 -695.985,233.77C-699.553,229.328 -703.682,225.457 -708.226,222.213C-710.285,220.496 -712.627,219.029 -715.281,217.854C-721.582,214.518 -728.442,212.258 -735.555,211.198C-741.837,210.217 -748.32,210.2 -754.786,211.198C-760.531,212.084 -765.986,213.711 -771.065,215.964ZM-703.869,199.761C-692.18,212.534 -674.691,205.118 -657.511,205.341C-618.266,209.058 -583.431,213.2 -543.979,212.261C-515.139,210.194 -481.736,213.618 -452.902,212.235C-433.871,208.857 -414.23,205.777 -394.834,206.308C-379.63,207.53 -357.183,216.234 -349.802,204.282C-349.247,167.628 -348.766,117.321 -346.311,80.767C-338.537,59.027 -333.102,31.98 -360.234,26.45C-368.949,26.194 -397.342,31.001 -406.061,30.835C-493.689,29.052 -568.17,31.54 -655.791,30.653C-670.402,30.134 -700.495,23.734 -705.205,37.4C-721.064,79.54 -718.5,118.966 -714.241,157.196C-720.141,169.54 -714.485,189.691 -703.869,199.761ZM-374.932,583.273C-379.205,567.407 -376.496,550.089 -371.19,533.23C-368.818,506.271 -362.121,482.177 -362.541,455.105C-355.316,442.536 -395.265,427.378 -407.666,432.743C-477.498,436.601 -531.34,439.437 -601.347,438.183C-620.173,436.319 -665.286,433.312 -684.228,437.511C-701.498,439.556 -709.588,425.874 -716.68,441.501C-722.839,455.468 -716.43,487.247 -718.421,501.698C-718.482,519.302 -712.889,537.294 -718.955,554.314C-716.727,572.902 -711.904,591.64 -715.738,610.294C-715.935,619.03 -715.518,627.845 -713.211,636.431C-688.285,635.681 -662.526,640.786 -638.188,635.148C-619.158,629.046 -582.576,629.761 -561.824,632.525C-512.34,632.884 -479.071,630.929 -429.602,631.767C-411.832,628.394 -393.208,639.517 -375.786,634.782C-368.697,620.345 -377.214,598.22 -374.932,583.273ZM0,631.589C-2.111,597.747 -3.412,563.919 -1.094,530.058C-0.098,502.64 1.137,475.224 1.23,447.786C-17.982,438.015 -42.488,437.079 -64.082,438.819C-116.41,436.89 -149.973,434.101 -193.639,441.388C-215.801,437.439 -241.15,437.337 -262.67,445.636C-284.742,446.267 -306.625,441.911 -328.806,443.767C-361.592,442.132 -351.443,476.312 -354.35,493.923C-359.543,518.9 -361.098,543.952 -359.987,569.353C-361.572,591.519 -371.827,616.607 -355.607,636.706C-299.193,637.782 -242.75,640.794 -186.355,638.042C-142.225,638.466 -98.125,640.944 -54,640.04C-36.756,642.487 -7.385,651.462 0,631.589Z"/>
        </g>
    </g>
    <g id="Gecko" transform="matrix(0.952381,0,0,0.952381,0,0)">
        <path d="M32.869,537.712C16.855,518.948 47.192,458.496 82.476,420.071C117.706,381.635 172.951,398.356 190.224,400.47C210.096,400.631 216.472,393.509 219.171,388.757C224.027,380.165 242.248,343.493 251.484,336.966C265.01,314.225 221.336,308.835 205.414,307.687C184.362,305.099 162.204,311.535 155.708,314.546C134.426,326.411 125.381,319.213 124.253,315.987C121.2,303.421 134.084,304.262 140.921,304.314C148.577,304.473 151.358,300.263 148.758,296.879C142.878,288.562 141.757,285.328 147.649,280.714C162.708,270.331 167.956,277.108 177.262,282.064C188.776,288.062 191.665,276.958 189.289,271.318C182.812,262.101 186.155,259.463 194.214,255.892C212.283,252.01 216.714,259.412 216.362,262.423C216.905,289.189 250.578,263.56 252.551,259.932C271.667,253.163 285.084,266.554 280.49,266.704C274.539,273.613 255.109,282.426 257.87,291.179C261.433,299.266 303.919,301.443 315.999,302.883C328.01,304.373 327.555,308.121 327.823,311.999C357.994,290.474 426.059,289.7 449.648,290.284C525.228,290.424 592.671,350.583 601.063,356.958C615.444,364.09 620.752,351.752 620.67,340.269C620.117,319.654 625.717,324.105 649.286,318.636C679.824,312.451 714.483,309.812 721.15,305.279C727.636,296.174 720.829,276.988 717.525,266.673C706.747,242.461 714.483,235.008 724.513,234.706C742.804,234.645 740.025,251.102 743.178,262.958C746.612,284.733 752.585,273.292 754.81,261.336C757.862,242.613 768.891,246.259 778.58,248.182C808.223,261.768 782.317,279.929 777.564,287.749C771.56,305.371 785.389,298.664 795.219,299.106C807.717,290.715 817.389,292.649 821.516,302.359C825.636,324.972 806.479,325.656 797.171,326.834C776.968,323.581 784.06,340.481 795.544,346.494C814.891,356.516 812.473,363.848 814.337,367.142C827.691,364.201 838.055,366.972 861.009,366.729C959.585,365.853 1017.7,452.452 1022.55,475.144C1055.18,628.269 962.275,661.215 923.646,658.747C840.099,651.052 813.853,601.488 807.145,587.719C768.901,489.053 812.282,464.65 828.236,453.57C877.296,426.778 915.833,452.896 926.831,462.656C965.305,504.011 960.722,555.962 939.066,570.304C883.086,603.855 859.912,556.013 875.513,553.373C936.419,548.58 924.552,497.988 907.209,487.764C836.857,457.679 841.803,523.197 845.488,542.789C855.771,589.854 886.472,600.732 910.04,595.746C1020.53,566.557 953.794,462.906 933.467,448.211C833.412,380.145 768.084,482.859 749.321,517.98C720.858,587.79 645.348,593.027 634.208,596.995C619.099,614.27 554.378,637.584 548.084,645.209C547.679,667.347 565.457,709.228 577.696,727.529C589.972,745.808 606.67,740.259 629.343,742.264C652.027,744.257 650.042,753.997 650.092,766.195C646.566,788.655 621.628,780.285 606.691,777.646C590.295,774.13 592.137,784.275 599.631,791.294C612.454,805.142 609.671,815.447 607.526,820.523C579.881,833.958 572.891,804.076 565.861,799.372C554.168,794.9 553.331,807.743 553.42,819.264C551.709,833.527 540.619,836.789 527.252,833.566C511.189,827.775 513.021,812.766 515.973,807.721C525.502,798.263 525.189,788.251 520.938,785.472C513.919,780.759 509.316,787.103 501.501,794.516C492.364,807.168 479.763,797.237 473.872,789.632C465.26,772.49 491.849,761.29 507.804,749.496C523.748,737.701 524.795,735.525 523.829,730.862C521.964,721.444 502.667,679.405 491.236,660.388C468.323,617.119 528.866,571.794 538.252,563.848C546.117,555.63 551.347,544.108 548.122,532.999C522.015,447.305 474.126,426.89 459.993,423.677C398.122,405.355 362.259,436.066 359.051,443.326C358.749,458.566 412.664,491.924 425.96,501.956C443.656,513.328 435.929,513.901 428.165,521.333C415.747,528.928 314.657,593.693 304.604,600.862C295.432,607.338 304.33,640.497 306.22,656.038C307.885,673.794 301.515,682.154 292.869,684.158C255.239,685.639 269.562,643.88 266.974,639.751C260.517,636.658 250.929,652.251 243.647,662.091C235.305,680.13 226.383,678.287 217.892,672.707C208.394,663.138 207.327,646.943 215.595,641.857C230.301,633.667 234.823,628.169 234.793,622.065C229.899,612.304 213.914,617.975 200.477,621.663C179.266,626.687 175.671,612.527 174.905,606.281C171.653,589.128 184.554,589.905 197.546,589.995C222.415,592.281 228.437,592.996 234.443,587.669C241.329,581.594 217.974,566.487 213.149,562.086C206.189,556.677 205.515,549.748 209.281,544.117C217.025,536.664 231.995,545.335 241.127,551.812C252.279,560.827 267.778,571.14 273.239,570.245C283.11,564.604 324.888,541.509 338.086,533.149C357.061,521.736 338.948,514.164 334.773,510.627C310.298,492.338 294.47,472.052 290.624,472.324C263.086,466.674 243.051,486.385 240.926,491.46C216.21,525.041 175.995,559.861 166.545,562.489C91.81,567.827 38.732,546.082 32.869,537.712ZM149.57,472.654C150.717,475.291 153.785,476.499 156.423,475.35L223.275,446.248C225.912,445.099 227.119,442.031 225.971,439.394C224.823,436.757 221.755,435.55 219.117,436.697L152.265,465.8C149.628,466.949 148.422,470.017 149.57,472.654ZM694.439,367.687C688.779,370.053 678.867,388.705 694.791,402.072C699.112,404.158 708.701,412.939 705.741,424.753C710.787,420.876 755.668,385.091 791.17,381.868C793.467,381.615 775.016,382.895 772.156,368.844C766.415,359.719 752.958,345.074 731.694,350.111C720.919,357.211 703.07,365.622 694.439,367.687ZM140.463,424.202C156.72,423.85 172.395,430.949 182.569,443.615C183.694,445.017 185.396,445.682 187.063,445.544C188.062,445.461 189.049,445.088 189.89,444.413L190.38,443.931C192.176,442.089 192.344,439.155 190.689,437.093C180.78,424.758 166.541,416.82 151.119,414.521C144.837,413.54 138.354,413.523 131.888,414.521C97.353,419.849 73.294,451.932 78.256,486.038C78.918,490.6 80.069,495.012 81.698,499.207L82.744,501.846L83.292,503.001C85.779,508.468 89.085,513.52 93.114,518.021C95.937,521.224 99.13,524.144 102.649,526.745C106.042,529.254 109.634,531.393 113.377,533.149C121.832,537.118 131.058,539.137 140.501,539.071C143.645,539.049 146.813,538.796 149.984,538.307C184.517,532.979 208.577,500.896 203.616,466.788C203.254,464.299 201.184,462.478 198.766,462.338L197.713,462.385L197.159,462.523C194.614,463.154 192.922,465.631 193.309,468.287C195.38,482.523 191.378,496.34 183.245,507.155L180.005,511.064C172.012,519.836 161.042,526.061 148.395,528.013C134.249,530.195 120.202,526.771 108.84,518.371C97.743,510.167 90.544,498.151 88.561,484.539C88.246,482.375 88.072,480.221 88.076,478.083C87.625,456.816 100.458,437.417 119.814,428.875C124.059,426.928 128.645,425.559 133.475,424.814C135.807,424.454 138.141,424.252 140.463,424.202Z"/>
    </g>
</svg>
