<?xml version="1.0" encoding="UTF-8" standalone="no"?>
<!DOCTYPE svg PUBLIC "-//W3C//DTD SVG 1.1//EN" "http://www.w3.org/Graphics/SVG/1.1/DTD/svg11.dtd">
<svg width="100%" height="100%" viewBox="0 0 2945 1000" version="1.1" xmlns="http://www.w3.org/2000/svg" xmlns:xlink="http://www.w3.org/1999/xlink" xml:space="preserve" xmlns:serif="http://www.serif.com/" style="fill-rule:evenodd;clip-rule:evenodd;stroke-linejoin:round;stroke-miterlimit:2;">
    <g transform="matrix(2.9509,0,0,2.94985,0,0)">
        <g transform="matrix(1,0,0,1.00032,957.828,6.74386)">
            <path d="M0,-6.534C-1.765,-1.089 -5.481,0.172 -11.086,0.169C-323.734,0.026 -636.383,0.04 -949.031,0.059C-951.847,0.059 -954.663,0.32 -957.479,0.459C-958.772,-5.496 -956.48,-6.993 -950.475,-6.709C-938.175,-6.127 -925.83,-6.534 -913.503,-6.534C-912.973,-3.691 -910.702,-4.199 -908.784,-4.133C-898.665,-3.784 -888.537,-4.628 -878.4,-3.3C-874.739,-2.82 -869.894,-1.354 -867.528,-6.534L0,-6.534Z" style="fill:rgb(222,0,81);fill-rule:nonzero;"/>
        </g>
        <g transform="matrix(1,0,0,1.00032,0.349012,215.698)">
            <path d="M0,-2.62C9.915,-5.382 20.057,-4.123 30.096,-4.145C83.697,-4.262 137.299,-4.2 190.901,-4.2C192.066,-4.2 193.236,-4.263 194.395,-4.17C194.959,-4.125 195.501,-3.79 196.054,-3.587C195.62,-3.405 195.197,-3.191 194.751,-3.049C188.174,-0.949 181.519,-0.152 174.695,-1.766C173.075,-2.15 171.15,-2.579 169.881,-1.426C165.273,2.762 159.7,1.952 154.266,1.953C105.159,1.961 56.051,1.952 6.944,1.976C4.629,1.977 2.315,2.236 0,2.375L0,-2.62Z" style="fill:rgb(222,0,81);fill-rule:nonzero;"/>
        </g>
        <g transform="matrix(1,0,0,1.00032,997.806,212.391)">
            <path d="M0,4.682C-2.148,4.543 -4.296,4.284 -6.443,4.283C-47.884,4.258 -89.332,3.78 -130.76,4.505C-147.193,4.792 -163.636,5.022 -180.075,5.228C-181.307,5.244 -183.197,5.994 -183.665,4.544C-184.122,3.13 -182.198,2.698 -181.209,1.886C-178.628,-0.233 -175.766,-0.987 -172.439,-0.939C-163.288,-0.807 -154.129,-0.715 -144.981,-0.959C-139.067,-1.115 -133.571,-0.214 -128.048,2.064C-122.41,4.389 -116.751,1.141 -111.081,0.659C-105.668,0.199 -100.328,-0.954 -94.815,-0.937C-65.358,-0.846 -35.901,-0.885 -6.443,-0.913C-4.296,-0.915 -2.148,-1.172 0,-1.312L0,4.682Z" style="fill:rgb(222,0,81);fill-rule:nonzero;"/>
        </g>
        <g transform="matrix(1,0,0,1.00032,487.527,323.684)">
            <path d="M0,-52.161C0.063,-57.653 -1.949,-61.214 -7.076,-61.915C-11.487,-62.518 -14.501,-60.062 -15.585,-55.922C-16.428,-52.701 -16.082,-49.294 -14.613,-46.193C-13.903,-44.695 -12.651,-42.726 -11.127,-43.092C-9.128,-43.57 -9.875,-45.914 -10.298,-47.32C-11.091,-49.946 -9.287,-51.469 -7.7,-51.536C-6.555,-51.585 -4.561,-49.526 -5.148,-47.44C-5.605,-45.814 -6.579,-43.463 -4.977,-43.097C-3.106,-42.67 -1.773,-44.937 -1.015,-46.889C-0.281,-48.773 0.179,-50.681 0,-52.161M-8.439,15.311C-12.018,0.463 -11.678,-14.532 -10.122,-29.571C-9.709,-33.565 -11.048,-36.072 -15.478,-36.048C-17.972,-36.034 -20.465,-36.021 -22.958,-36.02C-24.589,-36.019 -26.2,-36.263 -25.708,-38.443C-25.331,-40.11 -24.11,-40.924 -22.298,-40.341C-21.825,-40.188 -21.34,-40.056 -20.893,-39.846C-18.983,-38.95 -16.378,-38.473 -15.25,-39.776C-13.704,-41.563 -16.616,-42.581 -17.445,-44.004C-20.709,-49.604 -22.237,-55.274 -18.5,-61.257C-15.927,-65.375 -12.224,-67.472 -7.294,-67.185C-2.869,-66.929 0.507,-65.171 2.792,-61.103C6.14,-55.142 4.821,-49.698 1.71,-44.245C0.844,-42.727 -2.035,-41.308 -0.829,-39.956C0.638,-38.31 3.447,-39.04 5.668,-40.111C6.771,-40.644 8.161,-41.64 9.134,-39.93C9.596,-39.119 10.08,-38.013 9.885,-37.199C9.459,-35.42 7.851,-35.953 6.561,-36.015C6.062,-36.038 5.563,-36.044 5.065,-36.052C-5.823,-36.236 -5.203,-36.246 -5.044,-25.677C-4.837,-11.997 -3.274,1.854 -7.439,15.311L-8.439,15.311Z" style="fill:rgb(222,0,81);fill-rule:nonzero;"/>
        </g>
        <g transform="matrix(1,0,0,1.00032,997.806,0.207984)">
            <path d="M0,6.993C-7.578,6.854 -15.172,6.354 -22.728,6.699C-27.964,6.938 -30.868,5.829 -29.984,0L-5.997,0C-4.396,1.928 -3.165,4.412 0,3.996L0,6.993Z" style="fill:rgb(222,0,81);fill-rule:nonzero;"/>
        </g>
        <g transform="matrix(1,0,0,1.00032,997.806,-1.50866)">
            <path d="M0,5.712C-3.165,6.128 -4.396,3.644 -5.997,1.716C-3.463,2.246 1.199,-0.416 0,5.712" style="fill:rgb(222,0,81);fill-rule:nonzero;"/>
        </g>
        <g transform="matrix(1,0,0,1.00032,515.428,36.0759)">
            <path d="M0,147.551C-5.996,147.55 -11.993,147.572 -17.989,147.521C-18.733,147.514 -19.474,147.111 -20.217,146.892C-19.852,146.405 -19.585,145.768 -19.106,145.455C-13.145,141.561 -12.204,135.192 -12.535,129.204C-13.182,117.501 -14.845,105.85 -16.221,94.194C-17.712,81.561 -19.321,68.942 -20.944,56.325C-22.187,46.664 -23.519,37.014 -24.849,27.364C-24.979,26.414 -25.477,24.677 -25.623,24.696C-27.025,24.878 -27.095,26.326 -27.481,27.314C-39.623,58.315 -51.707,89.339 -63.808,120.357C-66.998,128.534 -70.272,136.679 -73.395,144.882C-74.868,148.754 -76.046,149.691 -79.859,146.435C-91.21,136.742 -95.257,123.029 -100.809,110.171C-112.697,82.644 -124.28,54.985 -136.022,27.394C-136.448,26.392 -137.463,24.686 -137.818,24.779C-139.162,25.131 -138.68,26.672 -138.831,27.715C-140.822,41.442 -142.791,55.173 -144.679,68.914C-146.59,82.827 -148.419,96.75 -150.257,110.673C-151.1,117.062 -151.99,123.449 -152.651,129.859C-153.27,135.86 -151.432,140.988 -146.56,144.833C-145.963,145.304 -144.895,145.599 -145.215,146.666C-145.524,147.697 -146.527,147.534 -147.331,147.535C-157.325,147.548 -167.318,147.554 -177.312,147.53C-179.318,147.527 -180.347,146.709 -178.869,144.797C-169.18,132.267 -169.008,117.04 -166.862,102.4C-163.868,81.968 -160.792,61.543 -158.28,41.051C-157.114,31.54 -155.017,22.14 -154.8,12.497C-154.701,8.073 -155.877,4.363 -158.954,1.201C-159.482,0.658 -159.74,-0.148 -160.122,-0.833C-159.372,-1.044 -158.623,-1.437 -157.873,-1.439C-147.379,-1.476 -136.886,-1.456 -126.393,-1.458C-124.133,-1.458 -122.664,-0.454 -121.85,1.703C-119.922,6.804 -117.097,11.727 -116.146,16.994C-115.182,22.337 -112.396,26.39 -110.252,31.043C-99.51,54.358 -89.816,78.156 -79.772,101.793C-79.131,103.301 -78.842,105.606 -77.087,105.574C-75.29,105.542 -75.414,103.132 -74.856,101.691C-62.714,70.334 -50.496,39.005 -38.514,7.586C-35.106,-1.349 -35.425,-1.471 -25.747,-1.47C-17.585,-1.47 -9.424,-1.504 -1.264,-1.388C-0.758,-1.381 2.529,-2.14 0.421,-0.051C-5.176,5.491 -4.283,12.339 -3.595,18.73C-1.95,34.001 0.518,49.182 2.657,64.4C4.842,79.942 6.978,95.491 9.242,111.021C10.313,118.367 10.882,125.777 12.838,133.014C13.971,137.206 15.797,140.666 18.967,143.556C19.855,144.366 21.468,145.139 20.67,146.755C20.038,148.034 18.591,147.524 17.488,147.532C11.659,147.575 5.829,147.552 0,147.551" style="fill:rgb(222,0,81);fill-rule:nonzero;"/>
        </g>
        <g transform="matrix(1,0,0,1.00032,788.504,110.099)">
            <path d="M0,-2.279C-0.002,14.531 -0.114,31.342 0.07,48.15C0.122,52.91 0.92,57.679 1.608,62.41C2.025,65.272 3.631,67.584 5.771,69.592C6.772,70.531 8.71,71.321 8.055,72.972C7.823,73.558 5.672,73.527 4.396,73.531C-6.593,73.57 -17.581,73.566 -28.57,73.53C-29.507,73.527 -31.037,73.464 -31.262,72.965C-31.812,71.743 -30.261,71.641 -29.584,71.034C-24.932,66.867 -23.242,61.298 -23.223,55.403C-23.096,17.457 -23.114,-20.49 -23.205,-58.436C-23.219,-64.268 -25.186,-69.477 -29.868,-73.387C-30.562,-73.966 -31.955,-74.283 -31.637,-75.527C-31.307,-76.811 -30.007,-76.468 -29.075,-76.447C-8.14,-75.963 12.842,-77.712 33.735,-75.404C54.413,-73.122 70.206,-56.415 68.771,-37.061C67.502,-19.928 56.315,-9.461 41.435,-2.737C32.891,1.125 32.771,0.767 38.381,8.42C50.636,25.138 63.442,41.389 78.182,56.03C84.089,61.897 90.772,66.769 97.757,71.25C98.437,71.687 99.397,71.897 99.182,72.938C99.126,73.207 98.404,73.485 97.974,73.51C89.731,73.994 81.553,75.433 73.217,73.885C63.545,72.089 56.931,65.767 50.876,59.012C34.923,41.211 21.453,21.544 8.799,1.3C6.397,-2.541 5.912,-4.669 11.428,-5.716C18.093,-6.982 24.076,-10.711 30.36,-12.744C36.664,-14.785 37.571,-19.331 39.748,-23.578C43.813,-31.515 44.22,-39.73 40.488,-47.996C36.745,-56.288 29.489,-59.836 21.244,-61.079C15.058,-62.012 8.667,-61.574 2.405,-60.304C-1.012,-59.611 0.062,-57.087 0.053,-55.204C-0.034,-37.563 0.001,-19.921 0,-2.279" style="fill:rgb(222,0,81);fill-rule:nonzero;"/>
        </g>
        <g transform="matrix(1,0,0,1.00032,240.259,104.102)">
            <path d="M0,8.446C5.981,8.446 11.966,8.306 17.941,8.497C21.628,8.615 22.753,7.532 21.335,3.915C14.761,-12.852 8.292,-29.659 1.767,-46.445C1.476,-47.194 0.996,-47.868 0.603,-48.578C-0.016,-47.885 -0.895,-47.294 -1.215,-46.483C-7.96,-29.427 -14.663,-12.354 -21.318,4.738C-22.334,7.349 -21.537,8.593 -18.439,8.498C-12.298,8.307 -6.147,8.441 0,8.446M0.407,23.609C-7.751,23.607 -15.913,23.73 -24.067,23.542C-27.042,23.473 -28.743,24.547 -29.683,27.249C-33.978,39.593 -39.479,51.505 -42.812,64.2C-44.174,69.389 -43.505,73.665 -38.698,76.745C-37.919,77.244 -36.735,77.86 -37.302,78.995C-37.524,79.44 -38.765,79.523 -39.542,79.525C-50.864,79.556 -62.186,79.557 -73.508,79.524C-74.279,79.521 -75.048,79.193 -75.819,79.016C-75.655,78.593 -75.618,77.976 -75.311,77.778C-62.376,69.449 -59.055,55.193 -53.757,42.312C-41.349,12.14 -29.327,-18.191 -17.222,-48.488C-15.939,-51.7 -15.139,-55.107 -14.134,-58.429C-13.09,-61.876 -14.634,-64.463 -16.831,-66.931C-17.618,-67.814 -19.751,-68.14 -18.898,-69.793C-18.217,-71.111 -16.465,-70.441 -15.198,-70.449C-6.707,-70.496 1.787,-70.352 10.275,-70.526C14.043,-70.603 16.069,-68.938 17.4,-65.602C33.175,-26.076 48.826,13.5 64.955,52.881C68.61,61.805 72.226,71.239 81.34,76.655C82.077,77.092 83.235,77.89 82.644,78.988C82.399,79.444 81.18,79.523 80.404,79.525C67.417,79.555 54.431,79.555 41.444,79.524C40.671,79.522 39.371,79.39 39.225,78.989C38.756,77.695 40.172,77.58 40.919,77.048C45.502,73.784 46.417,69.58 44.436,64.404C39.642,51.878 34.941,39.317 30.282,26.74C29.389,24.331 27.884,23.534 25.381,23.568C17.058,23.681 8.732,23.611 0.407,23.609" style="fill:rgb(222,0,81);fill-rule:nonzero;"/>
        </g>
        <g transform="matrix(1,0,0,1.00032,591.609,106.705)">
            <path d="M0,3.741C0,20.716 0.029,37.691 -0.013,54.666C-0.032,62.307 1.958,69.051 8.051,74.147C8.64,74.639 9.528,75.427 9.444,75.944C9.234,77.245 7.918,76.927 6.981,76.928C-5.006,76.95 -16.992,76.967 -28.979,76.908C-30.122,76.902 -33.285,77.118 -30.679,74.851C-22.985,68.157 -23.472,58.913 -23.347,50.434C-22.87,18.156 -22.845,-14.14 -23.361,-46.417C-23.499,-55.003 -22.689,-64.571 -31.057,-71.097C-32.952,-72.575 -30.68,-73.031 -29.435,-73.048C-25.439,-73.103 -21.443,-73.075 -17.447,-73.076C-3.962,-73.076 9.541,-73.504 23.004,-72.957C37.255,-72.378 51.011,-69.721 61.747,-58.94C78.048,-42.572 78.25,-20.705 61.252,-4.867C47.461,7.982 31.008,13.147 12.186,8.178C10.945,7.851 9.802,7.157 8.613,6.633C9.504,5.123 10.974,6.082 12.154,5.824C24.204,3.188 35.664,-0.653 42.714,-11.74C49.038,-21.686 50.276,-32.393 44.214,-42.8C38.75,-52.178 29.753,-55.952 19.033,-55.94C0,-55.917 0,-55.945 0,-37.199L0,3.741Z" style="fill:rgb(222,0,81);fill-rule:nonzero;"/>
        </g>
        <g transform="matrix(1,0,0,1.00032,168.014,189.312)">
            <path d="M0,-155.656C3.83,-155.656 7.667,-155.498 11.486,-155.698C15.866,-155.926 16.763,-154.258 15.229,-150.322C7.899,-131.507 0.715,-112.635 -6.592,-93.811C-18.097,-64.173 -29.667,-34.56 -41.186,-4.927C-43.306,0.527 -43.941,0.311 -48.926,-2.529C-63.216,-10.669 -69.662,-23.96 -74.946,-38.657C-87.439,-73.401 -100.514,-107.936 -113.431,-142.527C-114.84,-146.302 -117.482,-149.344 -120.451,-152.072C-121.16,-152.723 -122.196,-153.374 -121.894,-154.504C-121.48,-156.048 -120.046,-155.634 -118.956,-155.637C-110.797,-155.665 -102.638,-155.638 -94.479,-155.653C-92.235,-155.656 -90.686,-154.942 -90.148,-152.49C-85.587,-131.704 -76.636,-112.388 -69.783,-92.372C-63.67,-74.519 -56.733,-56.948 -50.133,-39.263C-49.642,-37.945 -49.593,-35.842 -48.132,-35.751C-47.383,-35.705 -46.216,-37.841 -45.706,-39.17C-38.292,-58.494 -30.93,-77.839 -23.634,-97.209C-22.628,-99.881 -21.997,-102.681 -18.867,-103.728C-17.982,-104.024 -17.298,-104.576 -17.591,-105.523C-20.074,-113.549 -14.246,-119.67 -12.671,-126.761C-11.563,-131.752 -9.789,-136.638 -9.429,-141.751C-9.139,-145.869 -10.774,-149.493 -13.863,-152.414C-14.6,-153.111 -16.386,-153.435 -15.676,-154.929C-15.081,-156.183 -13.587,-155.618 -12.488,-155.634C-8.326,-155.69 -4.163,-155.656 0,-155.656" style="fill:rgb(222,0,81);fill-rule:nonzero;"/>
        </g>
        <g transform="matrix(1,0,0,1.00032,514.109,211.485)">
            <path d="M0,6.168C-94.75,6.168 -189.5,6.142 -284.251,6.251C-288.718,6.256 -292.382,5.188 -295.531,2.154C-295.961,1.739 -296.264,1.191 -296.625,0.704C-296.054,0.477 -295.496,0.105 -294.908,0.051C-293.752,-0.056 -292.58,0.011 -291.414,0.011C-103.745,0.011 83.924,0.032 271.592,-0.084C277.715,-0.088 282.854,2.277 288.221,4.391C288.741,4.596 289.1,5.215 289.534,5.643C288.938,5.816 288.35,6.105 287.746,6.14C286.418,6.217 285.083,6.168 283.751,6.168C189.167,6.169 94.583,6.168 0,6.168" style="fill:rgb(222,0,81);fill-rule:nonzero;"/>
        </g>
        <g transform="matrix(1,0,0,1.00032,910.27,109.767)">
            <path d="M0,-1.381C0.001,-19.69 -0.009,-37.998 0.006,-56.307C0.011,-62.683 -1.433,-68.457 -6.504,-72.835C-7.084,-73.335 -7.488,-74.037 -7.975,-74.646C-7.204,-74.809 -6.434,-75.114 -5.663,-75.116C5.826,-75.146 17.315,-75.149 28.804,-75.114C29.716,-75.112 31.048,-75.621 31.401,-74.363C31.662,-73.433 30.4,-73.255 29.821,-72.723C23.051,-66.517 23.435,-57.946 23.312,-50.053C22.897,-23.429 23.153,3.205 23.152,29.836C23.152,31.001 23.606,32.462 23.074,33.286C16.981,42.734 25.59,51.428 24.461,60.733C24.014,64.413 26.899,68.156 30.017,70.91C30.668,71.485 32.098,71.821 31.552,73.104C31.067,74.24 29.826,73.867 28.883,73.869C17.228,73.89 5.571,73.887 -6.084,73.869C-6.864,73.869 -8.023,74.166 -8.204,73.181C-8.305,72.631 -7.558,71.719 -6.964,71.279C-1.476,67.204 -0.121,61.253 -0.063,55.042C0.111,36.236 -0.001,17.427 0,-1.381" style="fill:rgb(222,0,81);fill-rule:nonzero;"/>
        </g>
        <g transform="matrix(1,0,0,1.00032,717.541,120.124)">
            <path d="M0,-21.96C-0.001,-8.319 -0.087,5.323 0.05,18.962C0.093,23.258 -1.094,26.606 -3.475,30.376C-5.224,33.145 0.753,35.91 0.251,40.696C-0.531,48.156 0.786,55.626 7.206,60.979C7.815,61.487 8.74,62.184 8.14,62.975C7.775,63.455 6.659,63.506 5.88,63.508C-5.769,63.54 -17.418,63.54 -29.066,63.507C-29.839,63.504 -31.053,63.411 -31.295,62.955C-31.871,61.866 -30.694,61.145 -30,60.588C-24.186,55.925 -23.264,49.261 -23.232,42.629C-23.065,6.865 -23.063,-28.901 -23.231,-64.666C-23.265,-71.623 -24.191,-78.611 -30.103,-83.624C-30.537,-83.992 -30.756,-84.613 -31.074,-85.117C-30.444,-85.241 -29.814,-85.471 -29.185,-85.472C-17.535,-85.495 -5.886,-85.5 5.763,-85.465C6.512,-85.462 7.261,-85.099 8.01,-84.904C7.609,-84.414 7.256,-83.876 6.803,-83.442C1.64,-78.505 0.097,-72.148 0.039,-65.377C-0.085,-50.905 0.001,-36.432 0,-21.96" style="fill:rgb(222,0,81);fill-rule:nonzero;"/>
        </g>
        <g transform="matrix(1,0,0,1.00032,287.615,270.034)">
            <path d="M0,0.578C0,-2.084 0.015,-4.745 -0.005,-7.407C-0.022,-9.654 0.028,-11.901 2.858,-12.453C5.573,-12.984 7.162,-11.596 8.349,-9.23C10.205,-5.531 12.383,-1.995 14.252,1.697C15.818,4.791 16.845,3.671 17.951,1.452C19.801,-2.261 21.685,-5.956 23.535,-9.669C24.519,-11.645 25.965,-12.873 28.286,-12.459C30.831,-12.006 31.151,-10.064 31.144,-7.923C31.125,-2.433 31.122,3.057 31.146,8.547C31.158,11.057 30.873,13.424 27.657,13.493C24.472,13.562 24.094,11.323 23.935,8.747C23.788,6.376 25.082,2.325 23.054,2.037C20.778,1.714 20.374,5.945 18.962,8.069C17.723,9.933 17.543,13.057 14.798,13.225C11.594,13.42 11.505,9.974 10.171,8.038C8.725,5.94 8.375,1.71 6.058,2.023C4.09,2.29 5.424,6.37 5.188,8.745C4.988,10.754 5.208,13.294 2.495,13.204C-0.156,13.117 0.014,10.57 0.003,8.563C-0.011,5.901 0,3.24 0,0.578" style="fill:rgb(222,0,81);fill-rule:nonzero;"/>
        </g>
        <g transform="matrix(1,0,0,1.00032,763.521,271.222)">
            <path d="M0,-1.505C0,0.487 -0.033,2.48 0.006,4.472C0.097,9.162 2.192,10.479 6.647,8.68C11.751,6.618 13.389,-2.473 9.483,-7.215C7.315,-9.848 4.41,-11.396 1.146,-10.374C-2.033,-9.38 0.689,-6.445 0.043,-4.476C-0.253,-3.577 -0.008,-2.5 0,-1.505M1.613,12.381C-7.163,12.391 -7.164,12.391 -7.165,3.654C-7.166,-0.489 -7.067,-4.637 -7.188,-8.777C-7.295,-12.41 -5.647,-13.955 -2.087,-13.757C1.363,-13.566 4.785,-13.884 8.25,-12.922C15.598,-10.882 19.592,-5.992 18.963,0.926C18.377,7.355 13.262,11.922 6.09,12.359C4.603,12.45 3.105,12.373 1.613,12.381" style="fill:rgb(222,0,81);fill-rule:nonzero;"/>
        </g>
        <g transform="matrix(1,0,0,1.00032,649.538,275.298)">
            <path d="M0,-10.059C0.306,-8.355 -0.53,-5.766 2.701,-5.975C5.154,-6.133 6.699,-7.602 6.752,-10.098C6.811,-12.838 5.228,-14.464 2.514,-14.513C-0.708,-14.571 0.34,-11.92 0,-10.059M-6.121,-4.902C-6.121,-5.901 -6.265,-6.924 -6.095,-7.894C-5.524,-11.13 -7.872,-15.17 -3.895,-17.457C-0.959,-19.147 9.568,-17.493 11.938,-15.145C14.604,-12.501 15.028,-8.892 12.266,-6.766C8.43,-3.815 10.661,-1.624 12.011,0.947C12.469,1.82 13.41,2.532 13.608,3.432C13.959,5.026 17.269,6.336 14.904,7.907C13.128,9.088 10.246,8.909 8.607,6.634C6.482,3.683 4.574,0.577 2.492,-2.408C2.092,-2.983 1.692,-4.122 0.684,-3.555C0.28,-3.329 0.131,-2.407 0.105,-1.791C0.019,0.37 0.065,2.536 0.006,4.699C-0.046,6.569 -0.853,8.063 -2.847,8.157C-5.148,8.265 -6.043,6.66 -6.083,4.587C-6.143,1.425 -6.099,-1.739 -6.099,-4.902L-6.121,-4.902Z" style="fill:rgb(222,0,81);fill-rule:nonzero;"/>
        </g>
        <g transform="matrix(1,0,0,1.00032,528.514,274.9)">
            <path d="M0,-7.336C0,-9.498 -0.06,-11.662 0.018,-13.82C0.093,-15.936 1.164,-17.292 3.385,-17.358C5.866,-17.434 7.05,-16.007 7.088,-13.651C7.154,-9.495 7.043,-5.335 7.156,-1.181C7.27,2.995 8.445,6.516 13.557,6.505C18.671,6.493 19.817,2.957 19.926,-1.212C20.034,-5.366 19.939,-9.526 19.987,-13.683C20.009,-15.492 20.604,-17.21 22.718,-17.098C24.46,-17.005 25.081,-15.451 25.081,-13.81C25.083,-9.487 25.42,-5.123 24.937,-0.853C24.139,6.224 19.003,10.098 11.754,9.694C4.437,9.286 0.128,4.891 -0.024,-2.348C-0.06,-4.01 -0.03,-5.674 -0.03,-7.336L0,-7.336Z" style="fill:rgb(222,0,81);fill-rule:nonzero;"/>
        </g>
        <g transform="matrix(1,0,0,1.00032,588.447,270.195)">
            <path d="M0,0.29C0.113,-14.431 -1.723,-12.68 12.979,-12.644C15.024,-12.639 18.831,-14.072 18.843,-11.158C18.854,-8.19 15.067,-9.756 13.011,-9.651C9.701,-9.484 6.676,-9.87 7.121,-4.885C7.525,-0.349 10.76,-2.195 13.022,-1.731C14.486,-1.431 17.04,-2.526 16.979,-0.107C16.921,2.195 14.403,1.341 12.905,1.387C9.903,1.478 6.876,0.855 7.064,5.702C7.196,9.093 8.134,10.296 11.632,10.391C14.106,10.457 18.583,8.465 18.742,11.986C18.862,14.662 14.289,13.32 11.868,13.342C-1.711,13.458 0.117,14.721 0,0.29" style="fill:rgb(222,0,81);fill-rule:nonzero;"/>
        </g>
        <g transform="matrix(1,0,0,1.00032,817.322,270.547)">
            <path d="M0,-0.015C0.117,-14.786 -1.737,-13.032 12.979,-12.994C15.025,-12.989 18.84,-14.438 18.843,-11.496C18.845,-8.546 15.033,-10.486 12.986,-9.918C10.907,-9.341 8.002,-11.312 7.104,-7.255C6.01,-2.298 8.34,-1.776 12.279,-1.999C13.84,-2.088 16.734,-3.169 16.808,-0.629C16.881,1.9 14.006,1.042 12.373,1.017C9.231,0.97 7.105,1.152 7.033,5.393C6.953,10.032 9.476,9.878 12.694,9.981C14.814,10.049 18.629,8.694 18.682,11.442C18.741,14.548 14.942,12.966 12.96,12.974C-1.74,13.03 0.117,14.771 0,-0.015" style="fill:rgb(222,0,81);fill-rule:nonzero;"/>
        </g>
        <g transform="matrix(1,0,0,1.00032,420.936,256.487)">
            <path d="M0,28.222C-3.723,27.819 -6.774,26.652 -8.922,23.856C-9.722,22.816 -10.289,21.36 -8.796,20.348C-7.623,19.552 -6.403,20.124 -5.748,21.148C-3.958,23.946 -1.643,25.504 1.734,24.607C2.934,24.288 3.5,23.17 3.519,21.873C3.574,18.012 0.37,17.207 -2.181,15.788C-2.472,15.626 -2.751,15.441 -3.052,15.301C-6.451,13.728 -10.044,11.962 -9.783,7.617C-9.58,4.246 -7.104,1.871 -3.745,1.099C1.025,0 5.519,0.467 8.903,4.615C9.698,5.589 10.282,6.743 9.14,7.696C8.106,8.559 6.915,8.08 5.997,7.213C5.521,6.763 5.127,6.208 4.764,5.657C3.29,3.417 1.166,2.763 -1.28,3.45C-2.562,3.809 -3.859,4.865 -3.882,6.202C-3.923,8.661 -1.862,9.839 -0.039,10.966C1.651,12.012 3.485,12.825 5.183,13.86C7.909,15.523 10.922,17.347 10.464,21.014C9.965,25.005 6.734,26.627 3.109,27.453C1.988,27.708 0.876,28.004 0,28.222" style="fill:rgb(222,0,81);fill-rule:nonzero;"/>
        </g>
        <g transform="matrix(1,0,0,1.00032,232.769,260.326)">
            <path d="M0,20.574C0,22.381 -0.595,23.134 -2.058,23.269C-4.319,23.479 -5.996,22.658 -6.958,20.629C-8.59,17.187 -10.109,13.693 -11.724,10.244C-12.209,9.207 -12.733,7.798 -14.038,8C-14.638,8.093 -15.069,9.521 -15.506,10.381C-17.313,13.929 -19.096,17.492 -20.882,21.052C-21.729,22.74 -23.167,23.849 -24.901,23.04C-27.179,21.975 -25.206,20.384 -24.711,19.288C-21.847,12.947 -18.829,6.675 -15.793,0.413C-15.09,-1.035 -14.574,-2.912 -12.598,-3.083C-10.383,-3.275 -10.086,-1.183 -9.412,0.214C-6.46,6.334 -3.61,12.504 -0.739,18.663C-0.396,19.4 -0.149,20.183 0,20.574" style="fill:rgb(222,0,81);fill-rule:nonzero;"/>
        </g>
        <g transform="matrix(1,0,0,1.00032,708.37,272.582)">
            <path d="M0,-4.753C-0.732,-3.613 -1.332,-2.832 -1.773,-1.969C-3.582,1.568 -5.287,5.16 -7.147,8.67C-7.943,10.17 -9.188,11.736 -11.07,10.693C-12.969,9.643 -11.574,8.083 -10.971,6.811C-7.782,0.091 -4.592,-6.629 -1.342,-13.319C0.13,-16.349 2.284,-16.489 3.728,-13.593C7.188,-6.646 10.247,0.502 13.528,7.54C14.161,8.895 14.601,10.336 12.896,10.813C10.792,11.402 8.487,11.36 7.272,8.944C5.415,5.249 3.683,1.49 1.834,-2.209C1.42,-3.037 0.745,-3.734 0,-4.753" style="fill:rgb(222,0,81);fill-rule:nonzero;"/>
        </g>
        <g transform="matrix(1,0,0,1.00032,377.645,258.728)">
            <path d="M0,22.658C-0.039,23.91 -0.443,24.707 -1.697,24.834C-3.63,25.03 -5.508,24.81 -6.458,22.917C-8.237,19.37 -9.779,15.706 -11.511,12.135C-11.996,11.134 -12.354,9.717 -13.688,9.618C-15.325,9.498 -15.005,11.254 -15.49,12.139C-17.398,15.628 -19.093,19.233 -20.907,22.774C-21.765,24.447 -23.29,25.521 -24.972,24.576C-27.003,23.433 -25.125,21.904 -24.598,20.772C-21.453,14.019 -18.198,7.315 -14.882,0.642C-13.662,-1.815 -11.698,-2.863 -10.206,0.184C-6.79,7.165 -3.73,14.319 -0.528,21.404C-0.325,21.852 -0.146,22.31 0,22.658" style="fill:rgb(222,0,81);fill-rule:nonzero;"/>
        </g>
        <g transform="matrix(1,0,0,1.00032,152.704,272.595)">
            <path d="M0,-2.226C0,-5.219 -0.026,-8.212 0.008,-11.205C0.036,-13.534 1.079,-15.063 3.579,-15.052C6.085,-15.042 7.098,-13.486 7.114,-11.167C7.146,-6.511 7.35,-1.842 7.078,2.797C6.85,6.688 8.176,8.418 12.143,7.869C12.958,7.755 13.828,7.73 14.63,7.883C16.224,8.186 19.029,6.861 18.963,9.609C18.913,11.747 16.303,10.777 14.779,11.004C14.291,11.077 13.782,11.02 13.283,11.016C-1.844,10.884 0.111,12.837 0,-2.226" style="fill:rgb(222,0,81);fill-rule:nonzero;"/>
        </g>
        <g transform="matrix(-0.986407,0.164371,0.164319,0.986721,192.867,213.064)">
            <path d="M-6.038,-0.5L0.041,-0.5" style="fill:none;fill-rule:nonzero;"/>
        </g>
        <g transform="matrix(-0.989978,-0.141268,-0.141223,0.990293,870.388,215.902)">
            <path d="M-3.475,-0.322C-2.297,-0.422 -1.119,0.594 0.058,-0.322" style="fill:rgb(222,0,81);fill-rule:nonzero;"/>
        </g>
    </g>
</svg>
